HIERARCHY
ROOT Hips
{
	OFFSET -14.64140 90.27770 -84.91600
	CHANNELS 6 Xposition Yposition Zposition Zrotation Xrotation Yrotation
	JOINT Spine
	{
		OFFSET 0.00000 13.20850 -1.60436
		CHANNELS 3 Zrotation Xrotation Yrotation
		JOINT Spine1
		{
			OFFSET 0.00000 8.61716 0.00000
			CHANNELS 3 Zrotation Xrotation Yrotation
			JOINT Spine2
			{
				OFFSET 0.00000 8.61717 0.00000
				CHANNELS 3 Zrotation Xrotation Yrotation
				JOINT Spine3
				{
					OFFSET 0.00000 8.61717 0.00000
					CHANNELS 3 Zrotation Xrotation Yrotation
					JOINT Neck
					{
						OFFSET 0.00000 11.07920 1.10792
						CHANNELS 3 Zrotation Xrotation Yrotation
						JOINT Neck1
						{
							OFFSET 0.00000 7.08032 0.00000
							CHANNELS 3 Zrotation Xrotation Yrotation
							JOINT Head
							{
								OFFSET 0.00000 7.08031 0.00000
								CHANNELS 3 Zrotation Xrotation Yrotation
								End site
								{
									OFFSET 0.00000 0.00000 0.00000
								}
							}
						}
					}
					JOINT RightShoulder
					{
						OFFSET -0.01000 7.91373 5.19711
						CHANNELS 3 Zrotation Xrotation Yrotation
						JOINT RightArm
						{
							OFFSET -18.41580 0.00000 0.00000
							CHANNELS 3 Zrotation Xrotation Yrotation
							JOINT RightForeArm
							{
								OFFSET -29.11090 0.00000 0.00000
								CHANNELS 3 Zrotation Xrotation Yrotation
								JOINT RightHand
								{
									OFFSET -24.65040 0.00000 0.00000
									CHANNELS 3 Zrotation Xrotation Yrotation
									JOINT RightHandThumb1
									{
										OFFSET -5.35114 -0.85590 3.97906
										CHANNELS 3 Zrotation Xrotation Yrotation
										JOINT RightHandThumb2
										{
											OFFSET -4.52789 0.00000 0.00000
											CHANNELS 3 Zrotation Xrotation Yrotation
											JOINT RightHandThumb3
											{
												OFFSET -2.46976 0.00000 0.00000
												CHANNELS 3 Zrotation Xrotation Yrotation
												End site
												{
													OFFSET 0.00000 0.00000 0.00000
												}
											}
										}
									}
									JOINT RightHandIndex1
									{
										OFFSET -14.26970 0.00000 2.88139
										CHANNELS 3 Zrotation Xrotation Yrotation
										JOINT RightHandIndex2
										{
											OFFSET -5.48836 0.00000 0.00000
											CHANNELS 3 Zrotation Xrotation Yrotation
											JOINT RightHandIndex3
											{
												OFFSET -3.01859 0.00000 0.00000
												CHANNELS 3 Zrotation Xrotation Yrotation
												End site
												{
													OFFSET 0.00000 0.00000 0.00000
												}
											}
										}
									}
									JOINT RightHandMiddle1
									{
										OFFSET -14.26970 0.00000 -0.09147
										CHANNELS 3 Zrotation Xrotation Yrotation
										JOINT RightHandMiddle2
										{
											OFFSET -6.17441 0.00000 0.00000
											CHANNELS 3 Zrotation Xrotation Yrotation
											JOINT RightHandMiddle3
											{
												OFFSET -3.56743 0.00000 0.00000
												CHANNELS 3 Zrotation Xrotation Yrotation
												End site
												{
													OFFSET 0.00000 0.00000 0.00000
												}
											}
										}
									}
									JOINT RightHandRing1
									{
										OFFSET -12.69180 0.00000 -3.06433
										CHANNELS 3 Zrotation Xrotation Yrotation
										JOINT RightHandRing2
										{
											OFFSET -5.62556 0.00000 0.00000
											CHANNELS 3 Zrotation Xrotation Yrotation
											JOINT RightHandRing3
											{
												OFFSET -3.56744 0.00000 0.00000
												CHANNELS 3 Zrotation Xrotation Yrotation
												End site
												{
													OFFSET 0.00000 0.00000 0.00000
												}
											}
										}
									}
									JOINT RightHandPinky1
									{
										OFFSET -11.11390 0.00000 -6.03719
										CHANNELS 3 Zrotation Xrotation Yrotation
										JOINT RightHandPinky2
										{
											OFFSET -4.52789 0.00000 0.00000
											CHANNELS 3 Zrotation Xrotation Yrotation
											JOINT RightHandPinky3
											{
												OFFSET -2.46976 0.00000 0.00000
												CHANNELS 3 Zrotation Xrotation Yrotation
												End site
												{
													OFFSET 0.00000 0.00000 0.00000
												}
											}
										}
									}
								}
							}
						}
					}
					JOINT LeftShoulder
					{
						OFFSET 0.01000 7.91373 5.19711
						CHANNELS 3 Zrotation Xrotation Yrotation
						JOINT LeftArm
						{
							OFFSET 18.41580 0.00000 0.00000
							CHANNELS 3 Zrotation Xrotation Yrotation
							JOINT LeftForeArm
							{
								OFFSET 29.11090 0.00000 0.00000
								CHANNELS 3 Zrotation Xrotation Yrotation
								JOINT LeftHand
								{
									OFFSET 24.65040 0.00000 0.00000
									CHANNELS 3 Zrotation Xrotation Yrotation
									JOINT LeftHandThumb1
									{
										OFFSET 5.35114 -0.85590 3.97906
										CHANNELS 3 Zrotation Xrotation Yrotation
										JOINT LeftHandThumb2
										{
											OFFSET 4.52789 0.00000 0.00000
											CHANNELS 3 Zrotation Xrotation Yrotation
											JOINT LeftHandThumb3
											{
												OFFSET 2.46977 0.00000 0.00000
												CHANNELS 3 Zrotation Xrotation Yrotation
												End site
												{
													OFFSET 0.00000 0.00000 0.00000
												}
											}
										}
									}
									JOINT LeftHandIndex1
									{
										OFFSET 14.26970 0.00000 2.88139
										CHANNELS 3 Zrotation Xrotation Yrotation
										JOINT LeftHandIndex2
										{
											OFFSET 5.48836 0.00000 0.00000
											CHANNELS 3 Zrotation Xrotation Yrotation
											JOINT LeftHandIndex3
											{
												OFFSET 3.01859 0.00000 0.00000
												CHANNELS 3 Zrotation Xrotation Yrotation
												End site
												{
													OFFSET 0.00000 0.00000 0.00000
												}
											}
										}
									}
									JOINT LeftHandMiddle1
									{
										OFFSET 14.26970 0.00000 -0.09147
										CHANNELS 3 Zrotation Xrotation Yrotation
										JOINT LeftHandMiddle2
										{
											OFFSET 6.17440 0.00000 0.00000
											CHANNELS 3 Zrotation Xrotation Yrotation
											JOINT LeftHandMiddle3
											{
												OFFSET 3.56744 0.00000 0.00000
												CHANNELS 3 Zrotation Xrotation Yrotation
												End site
												{
													OFFSET 0.00000 0.00000 0.00000
												}
											}
										}
									}
									JOINT LeftHandRing1
									{
										OFFSET 12.69180 0.00000 -3.06433
										CHANNELS 3 Zrotation Xrotation Yrotation
										JOINT LeftHandRing2
										{
											OFFSET 5.62556 0.00000 0.00000
											CHANNELS 3 Zrotation Xrotation Yrotation
											JOINT LeftHandRing3
											{
												OFFSET 3.56744 0.00000 0.00000
												CHANNELS 3 Zrotation Xrotation Yrotation
												End site
												{
													OFFSET 0.00000 0.00000 0.00000
												}
											}
										}
									}
									JOINT LeftHandPinky1
									{
										OFFSET 11.11390 0.00000 -6.03719
										CHANNELS 3 Zrotation Xrotation Yrotation
										JOINT LeftHandPinky2
										{
											OFFSET 4.52789 0.00000 0.00000
											CHANNELS 3 Zrotation Xrotation Yrotation
											JOINT LeftHandPinky3
											{
												OFFSET 2.46976 0.00000 0.00000
												CHANNELS 3 Zrotation Xrotation Yrotation
												End site
												{
													OFFSET 0.00000 0.00000 0.00000
												}
											}
										}
									}
								}
							}
						}
					}
					JOINT pCube4
					{
						OFFSET 0.00000 10.91090 1.10792
						CHANNELS 3 Zrotation Xrotation Yrotation
						End site
						{
							OFFSET 0.00000 0.00000 0.00000
						}
					}
				}
			}
		}
	}
	JOINT RightUpLeg
	{
		OFFSET -9.98441 0.00000 0.00000
		CHANNELS 3 Zrotation Xrotation Yrotation
		JOINT RightLeg
		{
			OFFSET 0.00000 -42.11790 0.00000
			CHANNELS 3 Zrotation Xrotation Yrotation
			JOINT RightFoot
			{
				OFFSET 0.00000 -45.00020 -0.00001
				CHANNELS 3 Zrotation Xrotation Yrotation
				JOINT RightForeFoot
				{
					OFFSET 0.00000 -3.74820 0.00000
					CHANNELS 3 Zrotation Xrotation Yrotation
					JOINT RightToeBase
					{
						OFFSET 0.00000 0.06325 14.43120
						CHANNELS 3 Zrotation Xrotation Yrotation
						End site
						{
							OFFSET 0.00000 0.00000 0.00000
						}
					}
				}
			}
		}
	}
	JOINT LeftUpLeg
	{
		OFFSET 9.98441 0.00000 0.00000
		CHANNELS 3 Zrotation Xrotation Yrotation
		JOINT LeftLeg
		{
			OFFSET 0.00000 -42.11800 0.00000
			CHANNELS 3 Zrotation Xrotation Yrotation
			JOINT LeftFoot
			{
				OFFSET 0.00000 -45.00070 0.00000
				CHANNELS 3 Zrotation Xrotation Yrotation
				JOINT LeftForeFoot
				{
					OFFSET 0.00000 -3.74824 0.00000
					CHANNELS 3 Zrotation Xrotation Yrotation
					JOINT LeftToeBase
					{
						OFFSET 0.00000 0.06325 14.43110
						CHANNELS 3 Zrotation Xrotation Yrotation
						End site
						{
							OFFSET 0.00000 0.00000 0.00000
						}
					}
				}
			}
		}
	}
}
MOTION
Frames: 4
Frame Time: 0.050000
-0.015008600368334419 -0.0415943171645989 -0.00826267274988563 -0.035046074272527795 0.00606233694417905 -0.04013585552171016 -2.0002116752865793 2.867132836899551 -0.8842234572042096 -0.9371370512806061 3.912700333662073 0.323064379678747 -1.0233128647618754 -1.4437335039709567 -1.3255095176412712 -0.37507563389532145 0.4890009064573444 -0.7844493880151786 -1.085565179034393 11.63640355760484 2.5281101599513454 -0.06735626371865784 -2.0463909361498507 4.770256466152221 -0.519083938419306 -18.690356636281 0.390936354873435 -3.4564431898945194 1.4170923637985677 -14.396893773753067 73.33308195543785 21.673065223484617 0.32918268459654204 5.161190753954886 5.8881340965584625 53.197748083114725 20.407970348780747 -0.12119141133399564 -4.364033196933743 4.479246229716317 -0.10966041329540775 -1.6073306528657205 0.019488188490763968 -0.04446406775184414 -56.21591265175657 0.04739635712173753 0.03607489689448886 -56.222180097703266 -38.80642681677785 -0.039323682132286986 -0.03196011334690474 0.013345718521675279 0.01910687257689027 -0.03315597370425711 0.030153192330639726 0.013309401523087946 0.033177136439899814 -36.6754225181237 0.0030708452411502218 -0.009299563210294015 0.010585644324039982 -0.010107776203075304 0.018851949832034646 -0.005350234111579092 -0.04583513514055612 -0.04385438666471599 -19.769382478891792 -0.005113398466042455 -0.016641307682728902 0.03950827333267278 0.0004227719437161719 -0.03473485600193636 -0.03287143619072031 0.006185286034796095 -0.02913246071954932 24.07933078455276 0.0030533035763111614 -0.015372203775594106 28.82285449690847 0.04853115281551221 -0.021969989510635484 28.890681359970948 0.02661104816771274 0.012418760004527147 6.675128129465791 1.5345395364070646 12.723829854676291 -73.09956508229682 26.047018549410282 -10.865936802894861 -40.55086277455469 2.565416781757947 -78.68061128660558 -11.956147746636221 -1.7912711115359279 1.7301228892161997 -0.4768752880353697 0.09271115702583607 -8.131370452752945 0.004576184634684391 -0.022677576657524238 44.54750076941988 -0.014612179867920409 0.0490191742825018 44.5609638781381 12.458665638846922 -0.042435961706783515 -0.02175897682595566 -0.011020826476903355 0.008341201085892268 0.04920849216093498 -0.01779357440263973 0.005251820735107461 -0.04123038403598609 11.07594735566285 0.04557332174799349 0.002175888728599973 0.03974292309058597 0.043907203085619476 -0.019030187355642464 0.03527759590239779 0.03135376049346731 0.005761100371566352 4.775540361590755 0.02491299007922311 -0.04261125571068302 -0.0006407639537826445 0.008580633450636095 0.046282132730584 -0.04758664883168945 0.04412329681360545 0.04702046959122953 -5.55183669406627 -0.02777831788081163 -0.04112679861026042 -6.7517833909364215 0.022705294354407244 0.021293221190546587 -6.716508312146174 0.0436965474407927 -0.003038427146707044 0.03468060081086196 0.04270032607007653 0.007744878704251142 8.08656998627521 3.487853156658377 -19.249202719941618 -0.03364472793716775 10.378951827140007 0.038368590969727834 -5.593155955058175 -15.69456514096034 3.2135758135549235 -0.032913671894234345 -0.018948967961702215 -0.029587207912921007 -0.03173287069965223 4.661119498087422 -0.026274233090279448 12.446833079548036 -8.222420796520032 6.868078566601941 -0.04699612609751961 46.41439634918268 0.009005359346145068 -4.326591546521525 -14.775156447766896 -3.8131177285098437 -0.011760131223446045 0.00800198484187562 -0.006025790706086097 0.03858356817512648 -10.765728691446109 -0.04474628481301217 
0.04960318190592921 0.014984161139333286 -0.02621129991937456 0.0021138724167422142 0.0023833953393516557 0.004654267576726912 -2.1965690604771835 2.6627825849229705 -0.8750580722130714 -0.9741333326051984 3.842689865833256 0.37699783225247396 -0.9636327175532209 -1.5064230455292882 -1.4152791060148728 -0.4346364596445489 0.46255375696859585 -0.8652353139473815 -1.1646458370847133 11.674873318705341 2.726257402908198 -0.002099187415328222 -1.915464758057408 5.371208959180152 -0.5801325823888087 -18.447622865604767 0.41663790773949816 -3.209684993056617 1.355957212610439 -14.369284210589324 73.45290277838056 22.314602585876596 -0.2874017884978976 6.444350574255811 6.5749360615366585 52.449192064583634 21.17881974349971 -0.12648469207219637 -4.506934710533556 4.566300954857264 -0.10911798716850568 -1.574546391687829 0.0490445838515367 0.002231626887920873 -56.256944429380184 -0.0015665023525453085 0.022540585389702723 -56.212513832569485 -38.79765796835018 0.0134431893305116 -0.010652041181110131 0.036776574444387096 0.036192647580082234 -0.043383362197536815 -0.00041275729235919765 -0.02451621139008393 0.0009418963657208938 -36.66660004770685 -0.04365328863811839 -0.002680258705638983 -0.02177527724737827 -0.02299301478109163 -0.010379887094821662 0.036085884574965324 -0.018391381005094333 -0.02192384696703159 -19.76623228637002 0.0030732786450325587 0.008280225269375658 0.0060638577255596425 -0.02876339934658658 0.020829273872145945 0.03926707738242807 -0.047176060290253674 0.003763871511558276 24.049679118236355 -0.0023818212205675387 -0.009586699121410285 28.85906226870972 0.033094738626849564 0.030547466089198023 28.89628779106068 -0.03582900796914016 -0.022477990551250666 6.664564602182426 1.4953148428990992 12.731682020585229 -73.21579900874038 25.689234426184974 -11.008741516145259 -45.050468663650754 2.89484830639303 -82.31171694166648 -12.296966374712282 -2.0018967805639045 1.7575762152990317 -0.4487539865300271 0.0679141766874443 -8.144323621016568 0.019005250605740365 -0.003835326314945625 44.60497238671972 0.046263154459267035 0.016605285236443362 44.615530096929724 12.421166974266042 0.023139366768367354 -0.029281712959396584 0.031259236018008334 -0.03658225398995931 0.012712724614399975 0.03872886800944625 0.020755308357751228 0.030447744395806477 11.110895980260787 -0.0023913296485776783 0.0398024757622248 0.03743042165526899 0.032094658907623565 -0.004342862761743174 -0.028831657086521807 0.014429259170756796 -0.01239770696854831 4.805372603494479 -0.0018945978845868218 -0.004039802339689766 0.012954336945314197 -0.04302852006512696 -0.011718280115434984 -0.00011010647222913369 0.034161343272855076 -0.00012388792653436753 -5.627912031973202 -0.029935178353643347 -0.035178125902719175 -6.710369664109625 -0.00858664658832046 0.030669320620023612 -6.6722524759122175 -0.021433723281101234 0.017996353727787802 -0.027676925150099414 0.04542998513270303 0.011398343817978699 8.02565888644477 3.4538342290356376 -19.213167717829293 -0.016932434571130767 10.382233360601683 0.038900449114470145 -5.605633191402916 -15.612189089745087 3.1833800463119406 -0.014227991729463122 0.009272588223909283 -0.004279692998251483 0.04506556294429138 4.700240022526959 -0.03058575065466124 12.414594284605874 -8.217820175910354 6.860157261975658 -0.03409581310077033 46.37074833835249 -0.033608720899239004 -4.297755331793992 -14.774837605509205 -3.812902640265893 -0.03559851891319519 -0.014121162172364176 0.008097981258345384 0.02015045590660306 -10.756031799791248 -0.0007949521852398376 
0.03490732134253101 -0.008601143932101048 0.04223324206418908 0.03698897076958463 -0.008912199842949968 -0.014298426505167387 -2.380979346442734 2.526203123262708 -0.838162365193853 -1.0113002010394097 3.8144656839497326 0.38937533237752747 -0.9703479432614582 -1.5653905413102565 -1.4850600333219572 -0.46873515393709453 0.4660138720381133 -0.8625102046937884 -1.1979617469271704 11.678758901584203 2.966911350066176 -0.014790822696661895 -1.7883334097561963 5.844412803476389 -0.6403064543473341 -18.094432507421047 0.47142050622566456 -2.8615402245684334 1.321535118086771 -14.306465752803698 73.32598955374077 22.177488715441722 -0.6680470261920581 7.336169777957855 7.108705465711975 51.83385277985902 22.158339826081072 -0.04402781173232312 -4.564502586314566 4.509759745103929 -0.12814645741935293 -1.5531299260491915 -0.009141423657163344 -0.03275539751966014 -56.21207956608599 -0.006173027688342619 -0.010559278397774693 -56.22619119438671 -38.76435106972515 -0.03719141000382079 0.012543528811328022 0.033430909458312785 0.012462573604308611 -0.018841019190665394 0.03514475071740961 0.0376837342759337 3.2974863822749645e-05 -36.672853359988984 0.012223459506672536 -0.027709017701518585 -0.004758382198532411 -0.014350486010063302 0.046457929538024564 -0.044043231031483124 -0.0035357175342696353 -0.03137688855716366 -19.74941280298694 0.013506329812056668 -0.0010467598693765512 -0.03576951990553902 0.010313022874449634 0.00864470451549868 0.028179243562537842 -0.006092063725877387 0.019695616177475384 24.053989531623948 -0.034759224791297325 -0.03412890874794874 28.822645560288407 -0.04934947325433405 -0.037742741075006074 28.896206751725202 0.043571978979833566 0.027448738999302374 6.552223644365912 1.516158236023478 12.606335766351993 -72.93273785878847 25.30273622711277 -11.062446338208737 -48.586410926501365 2.828751342760726 -85.19963915025292 -12.481365613356935 -2.07833847856725 1.5510784471148895 -0.44177332536065017 0.07352069987738961 -8.116714027282352 -0.03953184650894677 -0.0035680134034766337 44.583820486921624 0.0234318767966001 -0.00313948146516689 44.594980709683625 12.47953122470502 0.016814475436963093 0.013350929620427604 0.030785764974946582 0.01827980843110923 0.012250986199897541 0.02024533230939239 -0.04954733940243524 0.014091064899785793 11.103026106596344 0.0005942551139167029 0.03283113777842908 -0.013272417837111885 -0.0450452546266961 0.02011563027348395 -0.03169031681656347 -0.04150916525090534 0.041869160857768345 4.767774096907503 -0.03615097511492005 0.003432759746686918 -0.01354227884181641 0.022768321842350586 0.03502797439446612 0.001494462761860649 -0.04204523512303862 -0.02396220056389738 -5.622902028261771 0.0028699279483488916 -0.023239047909151756 -6.6728782175843415 -0.04002514263938985 -0.02368709052952464 -6.731885851781956 -0.01271717624007781 -0.03861223523670596 0.006372831976241873 0.032000864410751506 0.002608776651266474 8.091848248143581 3.493495956879889 -19.18605929671474 0.03073122736124786 10.37077529928671 0.020194016894149694 -5.573411600034406 -15.65776637956594 3.1590848543115375 -0.019266449629841788 -0.0021342339444134733 0.015614372318227583 0.028621562502227752 4.697528880777342 0.020507460054389467 12.466779698029569 -8.259275245474516 6.861300349441561 -0.04219353381921931 46.38560399836741 -0.03324335349627204 -4.363165705953354 -14.780776329160465 -3.820139506235329 -0.0011169607864972596 0.041802325861110115 0.03861064311962635 -0.04924480086191557 -10.734353092685781 0.02620787834579158 
-0.016372173056210193 -0.019688849904011957 0.008197200201082888 0.023494358664969923 -0.018910527516490052 0.014330929361769313 -2.5235232623180317 2.4311179424793985 -0.8569880423876425 -0.9697141968542438 3.80572494302523 0.3717642836354314 -1.0301485089937346 -1.5314810818063778 -1.6527664976763592 -0.5037085148410829 0.4186155764937814 -0.9164618681923741 -1.2167771077324099 11.71205384120748 3.063404740758899 0.011876637135476265 -1.6550105126620653 6.132354941163649 -0.6088002602103519 -17.819870202316572 0.48755941077109927 -2.7231688423604754 1.2381480156425044 -14.219468036422116 73.0600560773336 22.006745452871623 -1.0301368861251534 7.768386601230902 7.205821538697352 51.39297685422998 22.88945690753502 -0.06396064917976277 -4.583569716621994 4.493923358038303 -0.09558309379103772 -1.6413818153489215 0.025684001230639925 0.048553476206325455 -56.19913679170466 -0.011424287858925006 -0.04656169546031594 -56.21162227031347 -38.81773211596507 0.0329728365798283 0.03859180226696903 -0.02657588127968072 -0.026362844075119744 0.029160457114428526 0.036857668818523544 -0.018532625704296077 0.047389342654270625 -36.70143108934969 0.026455807696553563 0.015038129265386148 -0.027438889383547587 0.0064645544663561975 0.02723343054645399 0.04190883032327213 0.02116207853537497 0.02120721331866628 -19.807953345953656 -0.005585978043093812 0.00974894112546602 0.015084614817358868 0.024888149859506693 -0.031168804239642814 -0.04865851356158792 -0.0037845539632960336 0.039714447975467505 24.055284348569653 0.008695623227131534 0.0032866821300984537 28.874592229037027 0.003802569560945026 -0.007729316386772957 28.832184323824254 0.013134264493692864 -0.03376688134359705 6.526643337583913 1.4588333563151528 12.603377130549593 -72.64308788724418 25.067035157395765 -11.046453944115507 -50.36940003162638 2.4992592476176734 -86.49538087011004 -12.481828090206534 -2.0702839829976463 1.4214151842129668 -0.5176494758093405 0.10868235001164811 -8.141367207715449 0.007809814975853897 -0.03447883739201071 44.60321908348379 -0.03311262152493255 -0.03187257815461919 44.58336332393522 12.465444200586639 0.04947971192066426 0.01295104471473032 -0.03014951214732891 -0.02432907361554337 -0.02269007288272337 0.04515825783140391 0.016731471213521854 0.023181707563917915 11.079635910446823 0.020354850009591568 -0.02257723122991657 -0.034405658840360336 -0.012636066587317533 0.028341852139951672 0.02214904510312614 0.02803826896651358 0.012619452697523978 4.815255464179976 0.02469080498207706 0.010494667769203759 0.0021158831040749377 0.015419401938579559 0.047632319687916515 0.01722314144467515 0.038445759240951914 0.028562228304707213 -5.559334822567352 -0.01812807077246689 -0.018271581871777402 -6.740663426419762 0.02374031646423393 0.03899870276507367 -6.701296284508487 0.020917281408437804 -0.03277047116592987 -0.013652310890799184 0.01728363148491613 -0.01110149482368607 8.073437607501482 3.4484097098024096 -19.21905375969104 -0.013810484101917661 10.384629275445056 0.019409301758552645 -5.586821541116755 -15.701360287347406 3.1904055453866085 0.04066718680231666 -0.02783984815574674 -0.018825022339517015 -0.004808800563622113 4.686410200245155 0.031814595578919885 12.440977330735512 -8.27923477699448 6.918397572391984 -0.01367906939806379 46.41291888177314 -0.02939401699743909 -4.307311291532996 -14.763331054527294 -3.8792818284643795 0.034576333764589795 0.017011068885530722 0.006656710527911549 0.018185302026640315 -10.69642989063804 0.013126943847731602 
